<svg id="bdb03513-3369-4ed6-a171-0d794b651758" data-name="Layer 1" xmlns="http://www.w3.org/2000/svg" width="350" height="400" viewBox="0 0 350 400"><defs><style>.fa9babd7-abff-4d5e-981e-135357ff8ed4{fill:#f99e49;}.b3305a2f-99a9-4f2f-964e-e288e4b764b8{fill:#fedcbd;}.bc9d6e75-8b7f-44a0-a551-9ed9a0621988{fill:#6a3800;}.b06ad5d8-86e9-4703-9df8-44928c558fd1{fill:#231f20;}.bde1ab9d-1d56-4edf-9146-fb2e047196ab{fill:#f4858e;}.eba6c830-cb45-48a5-aa82-88fbb42ed71b{fill:#fff;}.ab1073a4-aa00-4678-a576-f62d82961f82{fill:#e23c51;}.a2adf22d-53ea-4df6-adef-747d90405e80{fill:#952d1a;}.ec9f432b-fbee-4833-a462-438de10677f6{fill:#701d31;}.f5c9c849-3cdd-40bd-835c-313de86ad08e{fill:#5f0e0f;}.bca0e558-17d2-4a63-81d8-d777613411ad{fill:#3763af;}</style></defs><title>pers_artboard</title><path class="fa9babd7-abff-4d5e-981e-135357ff8ed4" d="M177.89112,192.50559l1.01864,11.13229,6.14338,16.73777a53.72145,53.72145,0,0,0-10.99493,16.91875c-4.55277,10.84354-6.83918,23.96346-3.70608,33.08855a129.58083,129.58083,0,0,1,4.56781,17.11425s2.56513,2.28137,1.13042,16.258c-1.41967,13.97664,18.549,38.78679,24.82018,24.81516,6.2808-13.98165,19.6849-28.52575,21.39833-36.22666,1.7034-7.70041,7.08381-22.71975,5.95289-31.84484-1.14546-9.13011-2.19317-20.0178-6.46722-25.43681-4.28358-5.41446-8.67944-10.71166-8.67944-10.71166l-5.92376-3.5978L202.364,216.7578l-.95954-11.78852Z"/><path class="fa9babd7-abff-4d5e-981e-135357ff8ed4" d="M173.48523,326.57324s-9.69306-6.27623-15.40076-7.138c-5.69879-.85167-15.96434-5.12522-19.39621,2.28645-3.41182,7.42119-1.71338,14.5441,5.71327,24.81967,7.41172,10.261,13.68294,19.10239,13.68294,19.10239l9.41378,5.14029Z"/><path class="fa9babd7-abff-4d5e-981e-135357ff8ed4" d="M223.41433,330.8518s7.6954-9.98181,15.10756-13.11992c7.41668-3.14313,11.984-4.56283,16.2576-.85671,4.28351,3.71059,10.55974,11.979,4.28351,23.09671-6.27572,11.12728-19.39565,26.5286-19.39565,26.5286s-8.27333-4.55779-14.55413,2.00217c-6.27121,6.55495-7.12292-29.95044-7.12292-29.95044Z"/><path class="fa9babd7-abff-4d5e-981e-135357ff8ed4" d="M153.63892,356.9934s-13.69742-7.97964-20.5361-8.55212c-6.84871-.573-13.40867,1.99717-18.53944,3.42185-5.12525,1.42465-13.96661,1.71343-17.09971-.573-3.14764-2.27639-7.13746-4.5623-8.85089-10.83852a88.61973,88.61973,0,0,1-2.2814-10.5548S76.06083,333.035,73.49074,339.032c-2.56569,5.98247-3.41739,17.39348,2.57009,24.52141,5.99205,7.12793,5.99205,12.54694,26.52809,13.98165,20.53209,1.42415,35.08622-3.14313,35.08622-3.14313s23.37594.573,24.23717-.57248c.8522-1.13594-3.99433-15.39631-3.99433-15.39631Z"/><path class="fa9babd7-abff-4d5e-981e-135357ff8ed4" d="M200.02385,285.5s-5.70826,25.67188-6.28124,33.37229c-.57242,7.70091-1.71343,15.68505-.57242,22.245,1.1454,6.56,1.1454,21.10958,1.1454,21.10958l-.28373,17.39848s-5.70826-17.97146-28.805-9.98682c0,0,4.55728-2.84937,4.83149-7.12793.29376-4.27856.29376-7.13294.29376-12.26321,0-5.14029,2.28641-17.97146,2.56513-20.82033.28925-2.85388,2.57015-13.125,2.57015-13.125l1.146-20.53657S192.31843,269.815,200.02385,285.5"/><path class="fa9babd7-abff-4d5e-981e-135357ff8ed4" d="M200.02385,296.04978s2.2814,18.539,3.41182,26.2444c1.146,7.70091,1.71343,14.82834.86674,19.39615-.86674,4.55778-2.28641,26.52859-1.99716,30.51841.28373,3.99433.563,8.55712.563,8.55712s9.69257-19.39565,29.38749-10.55479a16.53613,16.53613,0,0,1-6.007-13.12443c0-8.84136.578-15.11258-.27421-19.67992-.86123-4.56277-2.28591-10.83348-2.85889-15.685-.568-4.84653-2.27639-17.11479-2.27639-17.11479L217.9903,276.0862Z"/><path class="b3305a2f-99a9-4f2f-964e-e288e4b764b8" d="M168.9275,364.79206s-19.67944-21.67705-14.55419-30.51845c5.1403-8.83631,17.69231-1.99261,17.69231-1.99261s-1.71349,9.12058-1.42474,14.82834a146.45731,146.45731,0,0,1-.58251,15.40132Z"/><path class="b3305a2f-99a9-4f2f-964e-e288e4b764b8" d="M194.31559,378.48446s1.41466-15.1221.28373-19.40066c-1.15047-4.27856-2.28089-15.11207-2.57014-19.67487-.27872-4.5628,1.41967-16.258,1.41967-16.258l4.86157-31.0959a129.42984,129.42984,0,0,1,3.70558,16.83553c.8522,7.12793,2.85444,21.96128,2.56563,26.8028-.27922,4.85606-1.42468,15.9738-1.71343,19.6844-.27922,3.70608-.27922,23.67471-.27922,23.67471Z"/><path class="b3305a2f-99a9-4f2f-964e-e288e4b764b8" d="M225.402,334.55738s10.55429-14.83335,17.4035-5.13026c6.83367,9.69306-6.27122,29.65668-15.1221,35.36494,0,0-1.70892-1.71343-1.43471-7.70542.29877-5.98748.29877-12.54745.29877-12.54745Z"/><path class="b3305a2f-99a9-4f2f-964e-e288e4b764b8" d="M215.70891,262.3933c0,16.22846-8.36664,29.38247-18.68131,29.38247-10.32469,0-18.68074-13.154-18.68074-29.38247,0-16.22345,8.35605-29.37746,18.68074-29.37746,10.31467,0,18.68131,13.154,18.68131,29.37746"/><path class="b3305a2f-99a9-4f2f-964e-e288e4b764b8" d="M180.45174,193.65105s10.72072,36.51542,10.432,48.49489l13.32094.09274-5.08164-34.606Z"/><path class="b3305a2f-99a9-4f2f-964e-e288e4b764b8" d="M166.92527,367.07342a12.15064,12.15064,0,0,0-7.83726-.43111s-3.98982,1.1455-6.41309.14691c-2.42828-.99858-8.27339-1.71343-9.83988-1.71343a8.117,8.117,0,0,1-2.00725-.14186s-4.55277-2.707-6.986-2.85388c-2.42833-.13736-2.84441.57248-2.84441.57248s-2.8634-2.28144-5.13979-1.57157c-2.28139.71485-3.55419,1.57157-4.99341,4.9889-1.41961,3.42687-2.7075,9.7076-1.85574,13.27132.86669,3.5592,2.85432,5.27761,3.295,5.41951.42109.14187,3.98481,1.56154,3.98481,1.56154a14.55706,14.55706,0,0,0,7.84227,2.707c4.27907,0,6.8442.14688,6.8442.14688l4.851.71485s-1.42418-6.84871.28925-11.69524c1.71343-4.85155,5.27219-6.27623,6.12384-6.41308.85671-.1519,8.12656-.71485,8.12656-.71485l5.57587-1.8553Z"/><path class="b3305a2f-99a9-4f2f-964e-e288e4b764b8" d="M194.45746,379.34118s-1.71338,12.12134-4.42037,15.25945c-2.712,3.13311-10.55485,3.98982-10.98547,3.84745-.43111-.13685-11.97947-1.42418-11.97947-1.42418s-6.56,1.28733-9.272.14187c-2.702-1.141-3.42687-2.13954-3.42687-2.13954a7.38924,7.38924,0,0,1-5.54634-1.42468c-2.43329-1.99215-3.56421-10.843-3.56421-11.69524,0-.85675,1.2778-6.4226,3.41739-8.56214,2.13446-2.13452,2.13446-2.27638,4.99336-2.41825s7.25977,0,7.25977,0l5.1453-1.1455s16.253-15.25444,28.37888,9.56076"/><path class="b3305a2f-99a9-4f2f-964e-e288e4b764b8" d="M203.157,381.62258s2.84436-24.39408,28.805-11.984c0,0,1.14546,1.28733,5.14029,1.4292,3.9848.14186,8.12651-.71485,10.12368,1.28281a17.102,17.102,0,0,1,4.14171,12.83569,15.87973,15.87973,0,0,1-4.86157,9.55621l-4.12667.4256s-4.14673,3.70608-7.27983,2.56564a11.73875,11.73875,0,0,0-5.55636-.70984,36.825,36.825,0,0,1-10.70117,1.42418,19.55482,19.55482,0,0,1-9.56072-2.712s-2.71252-1.2778-4.264-5.424a33.49091,33.49091,0,0,1-1.86031-8.68947"/><path class="b3305a2f-99a9-4f2f-964e-e288e4b764b8" d="M228.82883,365.64376s2.56519-5.55636,10.83852.85672a14.74083,14.74083,0,0,0,7.83777.86173,74.90544,74.90544,0,0,1,8.27289-.86173l2.2814.57294a8.75577,8.75577,0,0,1,5.71333-1.70888c3.84739,0,4.264,1.13594,4.264,1.13594s3.14763-2.13452,5.28215-1.28282c2.13909.85672,3.13762,3.99483,3.28951,4.42093.13735.43062,2.56062,6.84871,1.7039,12.41009-.85671,5.55637-2.7075,6.13386-2.7075,6.13386l-5.28717,1.85025s-6.83868,1.42472-7.25977,1.28285c-.43061-.13735-7.13745-.70983-7.13745-.70983l-5.84562.57248Z"/><path class="bc9d6e75-8b7f-44a0-a551-9ed9a0621988" d="M175.61023,195.355c.08772.1564,10.40289,24.13941,13.76559,45.836a88.22523,88.22523,0,0,0-3.33863-19.87037c-3.29954-12.01357-6.3785-26.41631-6.43709-26.53862Z"/><path class="bc9d6e75-8b7f-44a0-a551-9ed9a0621988" d="M201.78139,219.98865c1.90393,16.1648,3.92621,19.45978,3.92621,19.45978-3.36325-14.57866-3.37829-35.5559-3.34364-35.81055l-1.91451,3.99482a104.25518,104.25518,0,0,1,1.33194,12.356"/><path class="bc9d6e75-8b7f-44a0-a551-9ed9a0621988" d="M168.13941,259.21157a55.56875,55.56875,0,0,0,1.56655,13.11491l5.69372,18.50936c.44515,1.85078.71936,2.94261.92038,3.5983.02908.14684.08322.387.08322.387l.04367-.01c.21054.5825.35736.573.65112.49929.29878-.06818.43563-.11229.43563-.42109a3.15766,3.15766,0,0,0-.04361-.32284l.01459-.005c0-.01955-.01459-.04411-.01961-.08823-.05414-.31782-.14186-.72441-.30829-1.40012a.4615.4615,0,0,1-.05916.01c-.55293-2.24731-1.86482-7.6568-4.87059-20.17416a54.52283,54.52283,0,0,1-1.53748-12.85575c0-22.71974,14.1531-38.54215,14.33407-38.72813l-.85165-.76348c-.16649.191-16.05256,15.465-16.05256,38.64994"/><path class="bc9d6e75-8b7f-44a0-a551-9ed9a0621988" d="M202.88274,217.9574c.181.15641,19.37109,9.96226,23.81157,37.5922,3.16719,19.75809-7.17706,43.31-7.26027,43.56464l1.08687.33286c.08315-.25466,11.55331-23.86023,8.4548-43.8975-4.67559-30.18054-26.23985-40.53481-26.42583-40.69121Z"/><path class="bc9d6e75-8b7f-44a0-a551-9ed9a0621988" d="M191.17246,340.83361c1.56661,10.1337,5.958,46.409-2.44281,52.9835-7.8132,6.11431-20.24234,1.15549-21.98535.40651a22.94362,22.94362,0,0,1-1.51742-8.03824,14.29764,14.29764,0,0,1,1.41973-7.1134,6.45263,6.45263,0,0,1,4.03838-3.17721c9.62489-2.5897,12.38553-2.63832,12.40508-2.63832,0,0-2.84386-1.11639-12.69878,1.53192a7.56288,7.56288,0,0,0-4.73881,3.72567c-3.57825,6.31984-.36194,17.8-.22007,18.28428l.06868.25967.24463.09775c.58752.2692,14.48545,6.5354,23.405-.44515,9.43389-7.38259,5.50774-48.43577,4.40138-55.68147-1.48835-9.68308,5.25765-50.36924,5.31123-50.7803l-1.12591-.18147c-.27421,1.67934-8.08741,40.89674-6.565,50.76626"/><path class="bc9d6e75-8b7f-44a0-a551-9ed9a0621988" d="M158.17715,372.52656c-3.34866,1.83625-6.81462,8.11194-6.0702,18.45622a7.67574,7.67574,0,0,0,3.17221,6.13887c4.49913,3.12308,12.0672.92038,12.38051.82714l-.7344-2.35459c-.06812.02457-6.37849,2.25684-10.432-.54845a6.63216,6.63216,0,0,1-2.688-5.28714c-.7735-10.85807,3.23642-14.91155,5.70826-15.83644,2.93258-1.09684,14.76016-1.70892,14.83836-1.71343,0,0-11.421-2.2814-16.17482.31782"/><path class="bc9d6e75-8b7f-44a0-a551-9ed9a0621988" d="M173.025,321.99089l-1.12591,5.50724c-1.62019,7.69089-3.30454,15.64094-2.68745,26.20572.80759,13.73656-4.66551,15.55777-6.45218,16.15982a21.86449,21.86449,0,0,1-6.65772.63615c-2.96215-.00953-5.7473-.01955-7.5831,1.34648-3.45143,2.5897-5.11573,12.09678-3.23587,18.49532,1.99716,6.81412,9.62439,6.4963,9.69757,6.49129l-.31331-2.66339a6.94233,6.94233,0,0,1-7.70041-5.14029c-1.84571-6.2662.07319-13.88841,2.84887-15.96378,1.52294-1.146,3.52511-1.43471,6.28625-1.42969,2.39876.0145,6.11933.14688,8.26337-.568,5.43906-1.8162,7.70047-8.136,7.13244-17.96646-.61158-10.41743.97452-17.408,2.65342-25.36809l1.14089-5.52228c1.04771-5.48271,1.76206-17.47167,2.17813-27.03741a77.60465,77.60465,0,0,0-.65068-13.79567c-.015.30379-1.919,30.88085-3.79431,40.613"/><path class="bc9d6e75-8b7f-44a0-a551-9ed9a0621988" d="M197.73744,290.24882c.07369.41106,6.82414,41.09722,5.32627,50.7803-1.11583,7.2457-5.042,48.29888,4.40088,55.68147,8.91956,6.98055,22.823.72437,23.41053.44515l.23461-.09775.07876-.25967c.13178-.48429,3.34364-11.96444-.22558-18.28929a7.5823,7.5823,0,0,0-4.74834-3.71565c-9.85442-2.65332-12.58649-2.6829-12.69883-2.6829,0,0,2.7852,1.19459,12.40507,3.78429a6.42809,6.42809,0,0,1,4.03894,3.17721,15.1177,15.1177,0,0,1,1.532,7.34349c0,4.4104-1.90893,7.3089-2.19812,8.38568-1.733.74393-12.90944,5.19393-20.71763-.91536-8.40072-6.57-4.97837-42.63474-3.42686-52.76844,1.52244-9.8595-5.997-49.37066-6.28575-51.05Z"/><path class="bc9d6e75-8b7f-44a0-a551-9ed9a0621988" d="M223.41433,371.06779c.06868,0,11.70025,1.42966,14.62782,2.526,2.47189.93542,5.5318,4.87109,4.76332,15.72917-.17145,2.38914-.96444,4.59187-2.57015,5.70324-4.05348,2.80526-10.19235.59254-10.27557.568l-1.01863,2.35459c.32835.09324,7.88695,2.29594,12.40056-.82714a7.71872,7.71872,0,0,0,3.1722-6.13887c.7344-10.34428-2.502-17.11475-6.0752-18.45622-3.08943-1.16-15.02435-1.45877-15.02435-1.45877"/><path class="bc9d6e75-8b7f-44a0-a551-9ed9a0621988" d="M218.65608,281.44656c.0195.3083,1.06721,29.80857,2.95158,39.61894l1.141,5.52729c1.67884,7.96459,3.26494,15.484,2.65336,25.897-.568,9.83493,2.63838,16.63952,8.09192,18.45572a20.77351,20.77351,0,0,0,6.72639.974c2.76616-.00953,5.38047-.01955,6.89283,1.12641,2.77116,2.07537,4.38183,9.15417,2.526,15.42037a7.67851,7.67851,0,0,1-7.69039,5.70325l-.31325,2.66339c.07814,0,7.69033.32283,9.70253-6.49129,1.87986-6.39854.20553-15.90562-3.2504-18.49532-1.82121-1.366-4.62145-1.356-7.5786-1.34648a21.612,21.612,0,0,1-6.64769-.63615c-1.80667-.60205-7.27976-2.42326-6.45218-16.15982.61158-10.56478-1.06726-18.51483-2.69241-26.20572l-1.12647-5.50222c-.71434-3.71561-1.42919-10.46155-2.04629-17.39849-1.008-11.25965-2.88791-23.15086-2.88791-23.15086"/><path class="bc9d6e75-8b7f-44a0-a551-9ed9a0621988" d="M140.58767,318.569a9.5866,9.5866,0,0,0-4.80743,6.49129c-1.86031,9.15467,8.26888,22.83755,15.646,32.8339,3.37323,4.55778,5.32176,7.29933,5.80607,9.17919l3.1331.56751c-.54346-2.0854-4.43-5.58548-8.01879-10.427-7.25977-9.8204-15.77773-22.98945-14.02025-31.64432a8.40268,8.40268,0,0,1,4.26854-5.73283c11.72487-6.92691,30.13191,8.58667,30.3224,8.73358l.62662-2.3596c-.83215-.61709-20.58522-14.94614-32.95621-7.64176"/><path class="bc9d6e75-8b7f-44a0-a551-9ed9a0621988" d="M138.987,365.11038c-2.49194,1.65428-3.83792,4.95883-4.00435,9.83944-.22559,6.99108.09274,11.24007,2.516,13.63422,1.66431,1.65929,4.23445,2.325,8.34207,2.16363l-.01955-3.14262c-3.75972.1564-5.52729.16141-6.95142-1.25826-2.09541-2.0904-2.38923-6.27121-2.16916-12.78706.14237-4.48409,1.25324-6.193,3.4224-7.62722,2.58463-1.71844,11.23,1.72346,12.83564,1.99265a19.80893,19.80893,0,0,0,9.59531-1.13594c-.10277,0-9.83543-.01955-14.63284-1.86532-3.52962-1.36052-6.71135-1.29234-8.9341.18648"/><path class="bc9d6e75-8b7f-44a0-a551-9ed9a0621988" d="M128.63332,363.58745c-3.01084,3.91662-5.82562,13.40867-4.80242,19.30291a6.61732,6.61732,0,0,0,2.67285,4.72922c5.47321,3.51008,13.95208,1.76707,14.18217,1.70341l-1.99766-1.71794c-.04863.02406-10.49107,1.49787-12.83068-5.12576-1.84076-5.238,1.41967-13.68789,4.27857-17.39848,3.41182-4.445,9.94722.01955,10.02592.07319l.67073-.91036c-2.77617-2.0904-8.905-4.91972-12.19948-.65619"/><path class="bc9d6e75-8b7f-44a0-a551-9ed9a0621988" d="M125.29413,360.21473c-1.757.35241-3.21632,1.64475-4.32268,3.84794-2.26135,4.51819-4.66,13.28636-2.0508,18.9109,1.15053,2.47737,6.20254,3.98029,8.9341,4.63148l-1.14095-1.70892c-2.37414-.563-4.99291-2.139-5.992-4.27355-2.44732-5.2576-.60706-12.15543,1.562-16.48312.92489-1.86031,2.1245-2.95213,3.51008-3.24088a6.37544,6.37544,0,0,1,4.45.95l.74392-.86675c-.11279-.09775-2.76615-2.34957-5.69372-1.76706"/><path class="bc9d6e75-8b7f-44a0-a551-9ed9a0621988" d="M259.6801,367.36221c2.25182,1.9726,3.1331,5.429,2.63387,10.28509-.7099,6.96146-1.60621,11.12777-4.32324,13.17406-1.88437,1.42418-4.51818,1.73295-8.56214,1.02315l.43613-3.104c3.71561.64617,5.46814.89127,7.07379-.31832,2.3596-1.78662,3.20629-5.89378,3.872-12.38556.45574-4.4595-.41607-6.30026-2.36411-8.00867-2.34005-2.05131-11.35787.1955-12.98808.23962a19.8753,19.8753,0,0,1-9.36472-2.41826c.0928.005,9.7467,1.30738,14.74513.12232,3.686-.87125,6.83417-.377,8.84136,1.3906"/><path class="bc9d6e75-8b7f-44a0-a551-9ed9a0621988" d="M270.13664,367.2444c2.45284,4.2936,3.97527,14.06988,2.16359,19.77764a6.621,6.621,0,0,1-3.28,4.31816c-5.89374,2.75613-14.05935-.12231-14.28945-.22057l2.20771-1.42919c.05364.02907,10.20188,2.893,13.41368-3.35869,2.531-4.92924.4256-13.74153-1.89941-17.81907-2.79573-4.84653-9.85949-1.30738-9.93819-1.26828l-.563-.99858c3.04537-1.69392,9.50708-3.66648,12.185.99858"/><path class="bc9d6e75-8b7f-44a0-a551-9ed9a0621988" d="M273.90638,364.3564c1.69839.587,2.96667,2.06086,3.75972,4.39089,1.62972,4.78283,2.83935,13.80068-.50931,19.01917-1.47827,2.29093-6.67727,3.10349-9.47751,3.39227l1.361-1.55151c2.4378-.24012,5.223-1.43925,6.51084-3.42686,3.1331-4.88563,2.24179-11.96945.67524-16.54177-.67524-1.9731-1.7034-3.21184-3.04988-3.6765a6.43136,6.43136,0,0,0-4.53323.32784l-.62662-.95c.12739-.07319,3.055-1.95305,5.88973-.98358"/><path class="bc9d6e75-8b7f-44a0-a551-9ed9a0621988" d="M247.88165,313.83982c-10.74033.25466-22.86167,13.40365-23.37544,13.96206l.32779,4.19037c.11279-.13234,17.67771-23.67922,29.66671-13.40867,9.94271,8.53256,7.83275,18.2161-5.99244,34.802-10.35884,12.42459-11.23962,12.6497-10.843,13.11491l2.53549,1.28733c.09324-.30332,1.01814-2.05582,9.49756-12.23364,9.50207-11.392,18.81314-26.05386,6.43263-38.41987a10.90425,10.90425,0,0,0-8.24927-3.29448"/><polygon class="bc9d6e75-8b7f-44a0-a551-9ed9a0621988" points="194.316 380.193 202.868 379.909 202.55 378.583 194.942 377.824 194.316 380.193"/><path class="bc9d6e75-8b7f-44a0-a551-9ed9a0621988" d="M87.36907,329.51986c.01453.10277,1.26326,12.557,5.66916,17.69722,3.5587,4.13673,9.55069,7.58816,27.1502,1.72349,16.12569-5.37038,29.48072,5.796,29.58349,5.91831l5.85464,7.26979c-.11229-.11229-19.07276-16.55129-34.4982-11.40649-14.50551,4.832-23.57195,3.5201-28.96189-2.76565-4.01388-4.69969-5.70776-14.76468-6.11932-16.91373-2.07537.3865-18.82763,7.12743-12.32186,26.57722,7.41216,22.13222,28.45257,20.5757,45.4059,17.34936l-.28925,2.27638c-12.55641,2.38918-36.99014,5.38041-46.14932-19.16559-8.6062-23.043,13.60417-28.9809,14.02526-29.03006l.5585-.07366Z"/><path class="bc9d6e75-8b7f-44a0-a551-9ed9a0621988" d="M87.35954,329.71587c-.01955.11279-2.19317,13.66834,3.87207,21.39832,4.03889,5.13528,10.65254,7.97964,19.66529,8.44935,0,0-13.45278,1.47832-21.43242-7.70041-6.785-7.81821-3.29953-21.91216-3.22634-22.35279Z"/><path class="bc9d6e75-8b7f-44a0-a551-9ed9a0621988" d="M76.139,337.5782c-.04913.09775-4.651,11.6411,1.90894,20.46291,6.58452,8.88547,14.88248,12.32687,35.8547,11.7589A44.29316,44.29316,0,0,1,93.146,369.4476c-7.48034-1.88488-13.02718-5.17438-16.52216-9.88406-6.89282-9.30606-3.73572-18.03964-3.69611-18.15243Z"/><path class="bc9d6e75-8b7f-44a0-a551-9ed9a0621988" d="M97.0526,373.31957s-8.03377,3.62291-20.06688-7.14694l-2.99123-7.04475c6.183,13.87391,23.05811,14.19169,23.05811,14.19169"/><path class="b06ad5d8-86e9-4703-9df8-44928c558fd1" d="M167.63059,388.36848s-2.40371-3.74514-4.02942.07824c-1.61517,3.8284,1.7922,8.84136,1.7922,8.84136a55.45457,55.45457,0,0,0,2.23722-8.9196"/><path class="b06ad5d8-86e9-4703-9df8-44928c558fd1" d="M155.84713,387.17894s-3.46145-2.80525-3.81832,1.33145c-.353,4.13669,4.44494,7.84729,4.44494,7.84729a57.13855,57.13855,0,0,0-.62662-9.17874"/><path class="b06ad5d8-86e9-4703-9df8-44928c558fd1" d="M148.44,385.75927s-3.45092-2.81982-3.81336,1.31691c-.372,4.13669,4.41592,7.86684,4.41592,7.86684a55.92124,55.92124,0,0,0-.60256-9.18375"/><path class="b06ad5d8-86e9-4703-9df8-44928c558fd1" d="M139.80966,378.76866s-2.26185-3.82836-4.02942-.06864c-1.757,3.75972,1.45426,8.9,1.45426,8.9a55.09849,55.09849,0,0,0,2.57516-8.83137"/><path class="b06ad5d8-86e9-4703-9df8-44928c558fd1" d="M129.36265,378.26941s-1.41967-4.21991-3.92615-.91587c-2.50649,3.31457-.43563,9.0128-.43563,9.0128a55.42693,55.42693,0,0,0,4.36178-8.09693"/><path class="b06ad5d8-86e9-4703-9df8-44928c558fd1" d="M121.70084,375.18493s-2.95164-3.3286-3.96977.6953c-1.02314,4.02892,3.11806,8.46439,3.11806,8.46439a55.2619,55.2619,0,0,0,.85171-9.15969"/><path class="b06ad5d8-86e9-4703-9df8-44928c558fd1" d="M227.68788,388.36848s2.41825-3.74514,4.03894.07824c1.62019,3.8284-1.79157,8.84136-1.79157,8.84136a56.12178,56.12178,0,0,1-2.24737-8.9196"/><path class="b06ad5d8-86e9-4703-9df8-44928c558fd1" d="M239.48588,387.17894s3.44642-2.80525,3.81392,1.33145c.36238,4.13669-4.44054,7.84729-4.44054,7.84729a55.89947,55.89947,0,0,1,.62662-9.17874"/><path class="b06ad5d8-86e9-4703-9df8-44928c558fd1" d="M246.893,385.75927s3.44641-2.81982,3.80834,1.31691c.37247,4.13669-4.40589,7.86684-4.40589,7.86684a55.67674,55.67674,0,0,1,.59755-9.18375"/><path class="b06ad5d8-86e9-4703-9df8-44928c558fd1" d="M255.93993,383.03724s2.26636-3.83291,4.03393-.07319c1.757,3.76473-1.45927,8.90452-1.45927,8.90452a55.79646,55.79646,0,0,1-2.57466-8.83133"/><path class="b06ad5d8-86e9-4703-9df8-44928c558fd1" d="M266.39145,382.1073s1.41967-4.21988,3.92615-.90581c2.50648,3.30956.43563,9.00779.43563,9.00779a55.00873,55.00873,0,0,1-4.36178-8.102"/><path class="b06ad5d8-86e9-4703-9df8-44928c558fd1" d="M274.905,379.02286s2.95665-3.32861,3.97478.70031c1.01864,4.0239-3.12809,8.45937-3.12809,8.45937a55.48232,55.48232,0,0,1-.84669-9.15968"/><path class="fa9babd7-abff-4d5e-981e-135357ff8ed4" d="M114.51476,75.89053c-3.17722.44569-9.73267,2.497-13.918,6.79511-2.75111,2.80972-5.806,10.13821-6.01149,11.9108,0,0-4.69519,29.49025.20553,30.572,1.87986.42109,13.751,2.31545,18.63212-7.172,2.702-5.233,2.13452-18.45071,2.59471-17.89277,12.2191,14.7351,22.83711,16.47811,24.58958,20.27188,1.75253,3.79435,5.9725-14.95563,5.9725-14.95563s-15.832-12.09176-21.30509-18.11785c-2.32507-2.56062-6.87778-11.95992-10.75987-11.41154"/><path class="bde1ab9d-1d56-4edf-9146-fb2e047196ab" d="M115.768,90.71887l.54346,9.91367s7.563,8.5471,10.56927,10.50567c3.00081,1.948,12.65472,8.20968,12.65472,8.20968s-2.3205-5.52725-3.62788-7.22564c-1.29234-1.69889-8.56715-10.50115-10.51018-12.26321-1.94352-1.76757-6.84921-6.80509-6.84921-6.80509s-2.03119-3.01029-2.78018-2.33508"/><path class="bc9d6e75-8b7f-44a0-a551-9ed9a0621988" d="M115.81662,101.59653s3.79431,3.87753,9.71261,9.086a83.48845,83.48845,0,0,0,14.45137,9.60032l-.73891-1.919a88.16349,88.16349,0,0,1-13.17406-9.59531c-5.605-4.23946-7.74453-5.95791-10.17281-9.80535Z"/><path class="bc9d6e75-8b7f-44a0-a551-9ed9a0621988" d="M106.74567,78.73492a13.15515,13.15515,0,0,0-5.4145,2.301c-10.79441,8.54259-10.85357,37.99374-8.18065,43.6624.979,2.07586,9.0519,4.28859,17.60451-1.47833,11.47467-7.73,3.73967-37.9251,3.71561-38.16518-.07369-.47472,4.66055,30.65076-4.77835,36.77008-5.83008,3.75972-13.746,4.97887-15.18076,1.9335-2.42827-5.14481-1.762-34.821,8.41075-41.6507.56747-.3865,1.0623-.32283,2.07035-.91035Z"/><path class="fa9babd7-abff-4d5e-981e-135357ff8ed4" d="M161.78047,94.11669a25.54981,25.54981,0,0,0,.92489-7.90644c-.23956-3.92114-1.15048-13.712-2.26636-18.0447-1.1209-4.32263-1.49336-10.92169.61208-13.169,2.12951-2.24175,5.78145-1.25771,5.78145-1.25771a4.8016,4.8016,0,0,1,2.5311-2.531c1.83569-.71485,5.7468-.63163,9.24735,1.346,3.48056,1.97811,6.35895,4.078,9.80536,5.69873,3.46145,1.61518,9.086,3.94571,13.13947,6.8828,4.05348,2.93258,7.3485,7.96008,5.34131,12.8798a11.7051,11.7051,0,0,1-12.82616,7.2307c-5.48819-1.07679-10.04548-2.02173-15.34769-6.32987,0,0-.07318,5.90427-.91987,8.9-.85221,2.98622-3.56923,11.96444-3.56923,11.96444l-2.82932,6.48677s-2.3596,2.526-4.23946,1.89941c-1.8944-.6216-5.38492-14.04983-5.38492-14.04983"/><path class="bde1ab9d-1d56-4edf-9146-fb2e047196ab" d="M168.6778,102.19408s1.22918-11.86167.78854-15.76827c-.43563-3.91663-.66121-15.70962-.66121-15.70962l10.39337,8.79725s-3.476,17.33983-5.86015,22.09813c-2.37915,4.76332-2.0117,4.74828-2.0117,4.74828l-2.61426-3.80835Z"/><path class="fa9babd7-abff-4d5e-981e-135357ff8ed4" d="M142.3402,103.67737l9.91865-3.72559,9.48252-2.97172,9.31107,8.83639s10.05049,15.93019,14.67144,20.61977c0,0,11.19143,11.04911,15.18576,12.95851a24.19958,24.19958,0,0,0,8.308,2.09541l1.63022.27375-1.20963,8.82683L152.2784,181.89716l-10.71164-7.65178s4.31309-9.44342,4.80242-13.531c.48018-4.08255-.08328-16.17933-.08328-16.17933l-4.77785-19.44478-3.85246-9.7081-.42109-5.93785Z"/><path class="b3305a2f-99a9-4f2f-964e-e288e4b764b8" d="M190.977,151.25142s7.96008-3.74017,14.75966-2.06082c6.81963,1.68882,11.54385,9.63892,12.23865,15.85649a19.44817,19.44817,0,0,1-6.19252,16.28712c-4.16627,3.56371-3.466,2.87343-3.466,2.87343s2.26135,13.04669,1.21865,20.40927c-1.03267,7.37256-2.80018,12.54744-7.52395,14.12853-4.73424,1.59111-4.2394.94945-9.292-1.47832-5.042-2.43831-11.11273-10.89768-11.11273-10.89768l-5.55637-6.2271s-9.17873,1.53246-13.3059.64166c-4.11213-.88629-10.46606-4.42545-14.16212-12.83619-3.70107-8.40524.95948-13.43324,3.91111-16.8992,2.97169-3.47047,15.7001-8.73358,15.7001-8.73358Z"/><path class="b3305a2f-99a9-4f2f-964e-e288e4b764b8" d="M167.46416,133.07944c4.74828,9.25743,11.84212,15.09753,15.84648,13.04673,3.99939-2.0513,3.40731-11.22051-1.351-20.483-4.73925-9.25744-11.84212-15.09754-15.842-13.03671-4.00435,2.05131-3.41232,11.22051,1.34648,20.47294"/><path class="b3305a2f-99a9-4f2f-964e-e288e4b764b8" d="M148.03392,142.20954c4.12166,9.5512,9.30105,14.97523,13.43775,13.19813,4.13224-1.78662,5.63958-10.10914,1.52294-19.66033-4.11264-9.5507-10.81447-15.84648-14.95567-14.06437-4.11715,1.78662-4.13219,10.97087-.005,20.52657"/><path class="eba6c830-cb45-48a5-aa82-88fbb42ed71b" d="M167.73787,115.95516s-1.67383.77851-1.52695,4.96885c.16142,4.20036.80759,5.43906,2.15357,8.62079,1.35651,3.18724,4.2936,7.90143,6.89282,9.61486,2.60975,1.70842,5.4536,2.01721,6.07571.49929.60707-1.51245.558-7.10838-.85671-11.01949a25.45573,25.45573,0,0,0-5.013-7.62225s-5.22351-7.18153-7.72548-5.062"/><path class="eba6c830-cb45-48a5-aa82-88fbb42ed71b" d="M149.84009,124.48321s-1.78656-.17645-1.61066,4.626c.16643,4.79791.18648,5.00344,1.72346,8.64536,1.53246,3.64241,4.05348,8.88547,7.02516,10.84353,2.98628,1.96308,5.35535,2.82481,6.05566,1.08681a18.13112,18.13112,0,0,0-.14683-11.17639A65.87743,65.87743,0,0,0,157.2277,127.871s-4.54826-5.81107-7.38761-3.38776"/><path class="ab1073a4-aa00-4678-a576-f62d82961f82" d="M202.46165,186.107a51.8108,51.8108,0,0,1-5.79147-.44014,59.56968,59.56968,0,0,1-7.73951-1.88989,50.33689,50.33689,0,0,1-3.887,8.16562,27.332,27.332,0,0,1-3.53966,4.72421s9.9382,13.24224,13.5511,12.82115c3.60777-.41607,5.85013-2.54558,7.18151-6.15842,1.32643-3.61284.22508-17.22253.22508-17.22253"/><path class="a2adf22d-53ea-4df6-adef-747d90405e80" d="M157.41819,86.39122a2.53642,2.53642,0,0,0-2.73156,1.22918c-1.27781,1.72295-1.80116,2.77567-1.13093,6.15842.68577,3.38275,3.52512,11.25961,6.86876,12.61056,3.34365,1.356,3.22083-.25962,2.668-4.66552a42.67827,42.67827,0,0,0-3.00583-9.88355Z"/><path class="a2adf22d-53ea-4df6-adef-747d90405e80" d="M151.4653,99.30561s2.22781,6.40356,2.02228,10.16328c-.20553,3.75471-.62216,6.21707-3.14814,3.691a23.22532,23.22532,0,0,1-5.60505-9.473,41.03593,41.03593,0,0,1-.979-9.835c.24463-2.05126,1.341-3.54918,3.67155-3.42682,2.34.11279,6.54487,3.52511,6.54487,3.52511l2.61426,4.85105Z"/><path class="a2adf22d-53ea-4df6-adef-747d90405e80" d="M142.85954,96.65726c-.51934-.26919-3.04988-2.80028-5.55636-1.18456-2.502,1.61518-2.688,1.83575-2.13,5.12024.568,3.3,3.96074,10.31517,3.96074,10.31517s3.22584,5.008,4.66055,5.09614c1.41967.08776,2.69748-.31327,1.99215-2.79519-.69981-2.47239-2.28089-10.94179-2.28089-10.94179l1.15047-2.21272Z"/><path class="bc9d6e75-8b7f-44a0-a551-9ed9a0621988" d="M168.11039,100.01545c.1759.32784,21.0599,39.01187,43.93153,40.63252l.62211.04415-2.4774,10.80891-2.43781-1.31185s1.87986-6.99058,2.13458-8.02876c-7.77416-.7339-13.5751-5.40949-19.69448-10.70623-6.58452-5.69819-12.90938-14.24078-17.31527-20.87443a34.09543,34.09543,0,0,1-4.76326-10.56431"/><path class="bc9d6e75-8b7f-44a0-a551-9ed9a0621988" d="M141.694,124.27267c4.40589,12.64018,10.94135,34.5523,1.80667,48.09786.75846.52887,4.70467,4.646,4.70467,4.646l-.64617.93492L139.354,173.707l1.49336-1.15549c13.712-19.4934-5.29218-61.92762-4.33721-59.945a86.28293,86.28293,0,0,1,5.1839,11.66617"/><path class="bc9d6e75-8b7f-44a0-a551-9ed9a0621988" d="M158.64737,165.83513l.44515,1.05272c-.08773.03409-7.90088,4.24394-10.26053,11.53332-1.29736,4.03394-.63164,7.67134,2.19317,12.366,3.31407,5.4927,7.5435,8.117,13.68288,9.08148a18.84077,18.84077,0,0,0,15.18526-3.93116c7.353-6.41313,8.54259-13.00262,8.44484-13.20816l.66572.7735c.12733.2301.20553,7.42671-7.87186,14.46641-4.078,3.57324-10.11409,5.13979-16.10614,4.20487a21.83586,21.83586,0,0,1-15.46-10.53975c-3.00577-4.99341-3.81831-9.73718-2.40321-14.11349,2.526-7.78914,11.1173-11.5243,11.4847-11.68572"/><path class="ec9f432b-fbee-4833-a462-438de10677f6" d="M182.79631,196.53952c.06366.08819,8.56715,14.52957,14.70151,11.48971,7.20613-3.58828,4.23952-22.32823,4.21991-22.431l1.17.0391c.08778.43062,3.4068,20.45339-3.94571,24.57049-7.353,4.11218-16.79643-12.61106-17.07064-13.00258Z"/><path class="bc9d6e75-8b7f-44a0-a551-9ed9a0621988" d="M176.97576,199.051c.1569.16643,12.10179,19.87037,22.03453,19.5721a6.64339,6.64339,0,0,0,5.253-2.58522c8.53262-10.57882,2.1636-31.01766,2.09993-31.19863l2.73156-1.30688c.24965.75842,5.27264,23.14585-3.67149,34.20945-1.547,1.929-5.042,3.33864-7.52445,3.41684-10.46607.3088-21.24137-19.23925-21.87256-19.92953Z"/><path class="f5c9c849-3cdd-40bd-835c-313de86ad08e" d="M144.36243,91.12546c3.50506-2.84937,8.5862.20052,8.77268.367l.89081,3.30454c-.0391-.0391-5.13021-5.79648-8.95365-2.7857-.66623.53889-1.0036,2.00719-.93993,4.01939.181,5.55633,2.44738,12.777,6.24163,15.47953.73891.5188,1.32142.72934,1.57157.54842,1.00309-.75395.91542-7.83777-2.96667-18.76954,0,0,3.44641,5.54183,4.23445,8.44484,1.30192,4.80743,1.78662,11.43557.29376,12.557q-1.05048.79254-2.918-.53388c-4.11664-2.92256-7.754-9.30606-7.60266-17.69225.0396-1.69839.14237-3.93567,1.37606-4.93927"/><path class="f5c9c849-3cdd-40bd-835c-313de86ad08e" d="M161.69224,105.36628a1.17581,1.17581,0,0,1-1.18456.13686,3.92688,3.92688,0,0,1-1.141-.70984c-2.17362-1.85028-3.887-5.64911-4.71419-9.12961-1.09684-4.51872-.68076-6.25166-.59254-6.56.51433-.568,1.84578-1.77258,2.8985-1.58159a1.2816,1.2816,0,0,1,.62662.29376,3.3632,3.3632,0,0,1,.82714,1.32693l.16142.45017c1.49336,3.87752,5.48768,13.99117,3.11856,15.77328m-8.45937-17.64312-.0391.10778c-.03911.12232-.89131,2.9762.33787,8.09694.95447,3.97026,4.28357,10.432,7.333,11.52881a2.297,2.297,0,0,0,2.25683-.29376c2.678-2.02679.005-10.23146-3.26995-18.80863l-.17144-.44516c-.53338-1.38057-1.30688-2.1686-2.3205-2.335-1.948-.33788-3.84745,1.81114-4.05348,2.05581Z"/><polygon class="f5c9c849-3cdd-40bd-835c-313de86ad08e" points="155.113 98.17 155.436 99.193 152.528 99.962 151.236 98.85 155.113 98.17"/><path class="ec9f432b-fbee-4833-a462-438de10677f6" d="M188.83291,184.0021s7.48987,12.6206,7.911,18.50034a26.34221,26.34221,0,0,0-6.32485-18.6422Z"/><path class="b06ad5d8-86e9-4703-9df8-44928c558fd1" d="M201.262,162.97123a1.12814,1.12814,0,0,0,1.58159-.21055,1.07688,1.07688,0,1,0-1.58159.21055"/><path class="b06ad5d8-86e9-4703-9df8-44928c558fd1" d="M198.67737,171.26417a1.19761,1.19761,0,0,0,1.552-1.80617,1.19667,1.19667,0,0,0-1.552,1.80617"/><path class="b06ad5d8-86e9-4703-9df8-44928c558fd1" d="M172.43752,185.44634a1.08,1.08,0,0,0,1.50295-.20052,1.09519,1.09519,0,0,0-.04367-1.52244,1.13471,1.13471,0,0,0-1.45928,1.723"/><path class="b06ad5d8-86e9-4703-9df8-44928c558fd1" d="M163.38612,179.74309a1.25005,1.25005,0,0,0,1.75253-.23009,1.18412,1.18412,0,1,0-1.75253.23009"/><path class="b06ad5d8-86e9-4703-9df8-44928c558fd1" d="M164.71255,190.99769a1.37756,1.37756,0,0,0,1.56655-2.24681,1.37807,1.37807,0,0,0-1.56655,2.24681"/><path class="b06ad5d8-86e9-4703-9df8-44928c558fd1" d="M207.38137,170.44154a1.19609,1.19609,0,1,0-.0391-1.60569,1.13641,1.13641,0,0,0,.0391,1.60569"/><path class="bc9d6e75-8b7f-44a0-a551-9ed9a0621988" d="M166.37234,52.06446a6.49566,6.49566,0,0,0-5.15477,1.0427c-3.32415,2.6288-2.75618,9.30155-1.332,14.33406,2.58524,9.16921,2.54107,24.32034,1.56655,25.58862l.71986,2.20274c.98906-1.76206,1.95311-17.56993-.70031-26.95419-1.42418-5.05708-1.33144-11.8181,1.41967-13.99168,2.115-1.67383,10.0946,2.48693,14.91206,5.811,0,0-9.17924-7.48034-11.43106-8.03327"/><path class="bc9d6e75-8b7f-44a0-a551-9ed9a0621988" d="M166.98442,52.647l.974.6562c.10778-.22559,2.61877-5.40949,12.73292,1.29685a78.60845,78.60845,0,0,0,11.74437,6.1098c6.16851,2.75612,11.4847,5.13527,13.75607,10.31467,1.58616,3.58827.06366,8.7436-4.61644,11.96439-3.2113,2.21276-12.21909,4.822-26.42532-7.53895-2.531-2.20771-10.824-8.61578-10.824-8.61578,19.84631,22.3132,33.71016,21.20684,37.68995,18.4657,5.23353-3.59826,6.89282-10.59886,5.11573-14.64231-2.50147-5.6837-8.0433-8.16562-14.44134-11.02952a76.49041,76.49041,0,0,1-11.57292-6.01154c-11.12722-7.37261-14.01073-1.23369-14.133-.96951"/><path class="bc9d6e75-8b7f-44a0-a551-9ed9a0621988" d="M168.32539,95.98653a65.21945,65.21945,0,0,0,.16643,8.63082c.14688-.578,3.1331-21.643,1.31239-32.58927l-1.89991-2.09993c1.60615,7.89642.7735,18.55849.42109,26.05838"/><path class="bc9d6e75-8b7f-44a0-a551-9ed9a0621988" d="M170.9592,105.5668l.979,1.47882c.25967-.53889,8.20522-19.64078,7.26027-27.53218l-1.47381-.64166c.90083,7.544-6.70678,26.5727-6.76549,26.695"/><path class="bc9d6e75-8b7f-44a0-a551-9ed9a0621988" d="M118.00478,76.49263c-3.18173-2.888-10.74027-.3083-13.84931,3.87251-4.81194,6.51585-1.39962,16.26756-1.39962,16.26756-.79806-10.623,1.10636-14.79876,4.9493-17.82463,4.631-2.37911,8.28291-2.25629,9.56573-.57745,3.35818,4.43547,18.36248,21.19731,18.47026,21.31511l.99407-1.39561c-.12232-.11233-14.65239-17.94189-18.73043-21.65749"/><path class="f5c9c849-3cdd-40bd-835c-313de86ad08e" d="M141.77273,97.03925l1.41968,6.91237c1.317,6.413,1.89439,10.27557,1.06224,10.76484a2.90824,2.90824,0,0,1-2.02674-.58752c-3.57368-3.0544-7.37256-13.937-5.46814-16.82551,2.12951-2.73156,5.013-.26418,5.013-.26418m.06367,19.00915a4.28258,4.28258,0,0,0,3.78378.74894c2.06584-1.2192-.50425-9.13011-1.30688-13.0713,0,0-1.38057-6.72593-1.40513-6.78l.788-1.26778c-.04361-.01454-6.16294-3.089-8.503.45518-2.38411,3.60783,2.98121,16.77688,6.64318,19.915"/><path class="bc9d6e75-8b7f-44a0-a551-9ed9a0621988" d="M115.24414,89.46061s15.33265,12.85077,22.23,24.98665c0,0-13.01214-15.6264-21.69159-22.17132Z"/><path class="bca0e558-17d2-4a63-81d8-d777613411ad" d="M148.51366,125.28579a22.34132,22.34132,0,0,0,1.738,6.35944c1.39511,2.94206,3.40229,6.50127,6.04563,7.70542,2.64835,1.20913,4.06351,1.69388,4.455-.30829a9.12567,9.12567,0,0,0-.573-6.03611,30.34887,30.34887,0,0,0-3.15761-5.615s-3.43644-4.2545-5.28673-4.35727c-1.86031-.11229-3.22133,2.25183-3.22133,2.25183"/><path class="b06ad5d8-86e9-4703-9df8-44928c558fd1" d="M159.2394,150.26738c-2.7852-1.17-6.14389-5.62454-8.36613-11.0832-3.2308-7.9305-2.81974-14.29492-.43112-15.27395a2.56392,2.56392,0,0,1,2.00273.14688c2.78014,1.165,6.14333,5.625,8.36107,11.07864,3.22634,7.93552,2.83483,14.29948.43562,15.27851a2.56077,2.56077,0,0,1-2.00217-.14688M150.00652,122.853c-3.3677,1.37555-3.45092,8.73809-.191,16.76184,2.36461,5.806,5.88973,10.40289,8.97872,11.70025a3.64731,3.64731,0,0,0,2.8639.1569c3.38726-1.376,3.4805-8.73863.21-16.76234-2.3596-5.811-5.89374-10.40289-8.98272-11.70476a3.677,3.677,0,0,0-2.879-.15189"/><path class="b06ad5d8-86e9-4703-9df8-44928c558fd1" d="M150.79506,134.31814m8.88,5.29214a1.8484,1.8484,0,0,1-1.40006.1369c-1.94809-.4652-4.57683-2.88847-6.5159-6.0311-1.94353-3.13811-2.93209-6.55494-2.4719-8.51351a1.78637,1.78637,0,0,1,.7344-1.18957c1.45877-.90539,5.07162,1.30236,7.911,5.88922,1.94854,3.14814,2.94712,6.56494,2.48693,8.51352a1.87322,1.87322,0,0,1-.74443,1.19454M148.1808,124.9434c-.53833,2.26135.48476,5.93785,2.61426,9.37474a18.60808,18.60808,0,0,0,4.69965,5.28212,7.46951,7.46951,0,0,0,2.511,1.25324,2.95918,2.95918,0,0,0,2.26686-.26916,2.89994,2.89994,0,0,0,1.25324-1.89941c.53338-2.26185-.49428-5.94788-2.61922-9.37975-3.03991-4.92022-7.20117-7.66637-9.47255-6.2662a2.89754,2.89754,0,0,0-1.25324,1.90442"/><path class="b06ad5d8-86e9-4703-9df8-44928c558fd1" d="M154.2119,132.68793c1.65979,2.69747,3.95573,4.30312,5.12079,3.58326,1.15995-.71435.7539-3.48551-.91091-6.183-1.66931-2.697-3.96976-4.29811-5.13528-3.58326-1.16.72437-.74893,3.49048.9254,6.183"/><path class="bca0e558-17d2-4a63-81d8-d777613411ad" d="M171.36575,115.76417s-3.24088-.6021-3.25536,1.61567c-.005,2.2027-1.131,3.20625.70978,6.63316,1.84076,3.43187,3.35818,6.07069,5.30672,7.167,1.93851,1.09683,3.49,2.46236,4.45-.51884.95948-2.97173.72938-3.882-.55343-7.07881a24.16083,24.16083,0,0,0-3.41684-5.73733Z"/><path class="b06ad5d8-86e9-4703-9df8-44928c558fd1" d="M178.13631,140.4129c-2.71257-.96951-6.11938-4.93927-8.44489-9.88406-3.44641-7.26478-3.33362-13.29588-1.05272-14.36815a2.5555,2.5555,0,0,1,1.99265.02958c2.722.969,6.1093,4.94428,8.45937,9.88406a24.63641,24.63641,0,0,1,2.6679,10.18228c-.005,2.1882-.592,3.70111-1.62019,4.18582a2.60222,2.60222,0,0,1-2.00212-.02953m-10.01144-25.31947c-3.22634,1.53242-3.02031,8.53307.48927,15.93967,2.50648,5.28722,6.09024,9.40933,9.12559,10.49117a3.703,3.703,0,0,0,2.898-.01453c3.2308-1.53247,3.02527-8.53307-.4798-15.94473-2.50648-5.28216-6.09977-9.3993-9.125-10.48611a3.7267,3.7267,0,0,0-2.90808.01453"/><path class="b06ad5d8-86e9-4703-9df8-44928c558fd1" d="M177.34321,131.43469c-1.46379.759-4.72422-1.537-7.03971-6.04117-2.33052-4.49859-2.29593-8.47888-.81761-9.24737,1.47331-.75394,4.73875,1.537,7.04421,6.04112,1.6012,3.094,2.23283,6.28576,1.65027,8.12652a1.80268,1.80268,0,0,1-.83716,1.1209m-8.09243-5.50273h0c2.50648,4.8761,6.30029,7.75455,8.64034,6.55043a2.99791,2.99791,0,0,0,1.41516-1.80667c.69029-2.16359.0391-5.615-1.72847-9.02734-2.49144-4.87059-6.29026-7.74958-8.63025-6.54993-2.3356,1.20912-2.20326,5.96291.30322,10.83351"/><path class="b06ad5d8-86e9-4703-9df8-44928c558fd1" d="M172.20743,123.94478c1.3565,2.66292,3.4224,4.3177,4.61643,3.70562,1.18958-.60206,1.0432-3.25542-.33737-5.91379-1.361-2.65837-3.42686-4.31766-4.62139-3.71059-1.18462.61659-1.03323,3.26544.34233,5.91876"/><path class="eba6c830-cb45-48a5-aa82-88fbb42ed71b" d="M168.6387,120.18961c.015.43563.754.764,1.65979.72939.92038-.03911,1.63523-.41107,1.61568-.84669-.015-.42611-.769-.759-1.66982-.72943-.90534.03914-1.62019.41607-1.60565.84673"/><path class="eba6c830-cb45-48a5-aa82-88fbb42ed71b" d="M150.06568,128.30158c.01955.43559.76848.76348,1.66931.72939.9054-.04411,1.62521-.41106,1.60565-.85672-.015-.4261-.75394-.74893-1.6648-.71484-.90027.03454-1.61518.41156-1.61016.84217"/><path class="bc9d6e75-8b7f-44a0-a551-9ed9a0621988" d="M216.68794,156.76368a20.01874,20.01874,0,0,1-1.21915,21.88308,18.68361,18.68361,0,0,1-18.74,7.73c-4.2931-.84719-7.53894-1.557-8.5862-3.53969-1.88487-3.52457-3.44641-6.11928-3.486-6.26119l1.08229-.20553c.00953.03413,1.25325,2.52607,3.19176,5.76194.95948,1.6252,4.21991,2.02173,8.16561,2.8002,6.78,1.346,12.72841-1.84072,16.86461-7.53448a17.92972,17.92972,0,0,0,.5194-20.58519c-7.93107-12.16545-22.46565-5.4536-23.06269-5.15984l-.39151-1.01813c.1564-.06868,17.53032-8.21474,25.66185,6.12885"/><path class="b06ad5d8-86e9-4703-9df8-44928c558fd1" d="M158.64737,165.1644l-.186.30829.21.29376c.08371.12733,8.81234,12.39555,26.84691,12.65974l.27923.005.16643-.20553c.57248-.67575,13.98115-16.72775,6.23161-28.93231l-.10277-.16643-.19049-.06868c-.206-.06872-20.25782-6.70684-33.255,16.10615"/><path class="eba6c830-cb45-48a5-aa82-88fbb42ed71b" d="M191.89734,152.89166s-22.92578,11.93486-26.96422,11.97894c-4.04847.04917,26.96422-11.97894,26.96422-11.97894"/></svg>